<mxfile host="app.diagrams.net" modified="2024-05-07T04:07:51.636Z" agent="Mozilla/5.0 (Windows NT 10.0; Win64; x64) AppleWebKit/537.36 (KHTML, like Gecko) Chrome/124.0.0.0 Safari/537.36" version="24.3.1" etag="6WCoRpQche-9P8TuLx1q" type="github">
  <diagram name="Page-1" id="Rh_wyVeWUr-DcbN7tnTX">
    <mxGraphModel>
      <root>
        <mxCell id="0" />
        <mxCell id="1" parent="0" />
      </root>
    </mxGraphModel>
  </diagram>
</mxfile>
